<?xml version="1.0" encoding="UTF-8" standalone="no"?>
<svg
   xmlns:dc="http://purl.org/dc/elements/1.1/"
   xmlns:cc="http://creativecommons.org/ns#"
   xmlns:rdf="http://www.w3.org/1999/02/22-rdf-syntax-ns#"
   xmlns:svg="http://www.w3.org/2000/svg"
   xmlns="http://www.w3.org/2000/svg"
   xmlns:sodipodi="http://sodipodi.sourceforge.net/DTD/sodipodi-0.dtd"
   xmlns:inkscape="http://www.inkscape.org/namespaces/inkscape"
   inkscape:version="1.0beta2 (2b71d25, 2019-12-03)"
   sodipodi:docname="youtube.svg"
   xml:space="preserve"
   enable-background="new 0 0 158 110"
   viewBox="0 0 158 110"
   y="0px"
   x="0px"
   id="Layer_1"
   version="1.0"><metadata
   id="metadata2054"><rdf:RDF><cc:Work
       rdf:about=""><dc:format>image/svg+xml</dc:format><dc:type
         rdf:resource="http://purl.org/dc/dcmitype/StillImage" /><dc:title></dc:title></cc:Work></rdf:RDF></metadata><defs
   id="defs2052" /><sodipodi:namedview
   inkscape:current-layer="Layer_1"
   inkscape:window-maximized="0"
   inkscape:window-y="1228"
   inkscape:window-x="0"
   inkscape:cy="55"
   inkscape:cx="28.650735"
   inkscape:zoom="2.4727273"
   inkscape:pagecheckerboard="true"
   showgrid="false"
   id="namedview2050"
   inkscape:window-height="878"
   inkscape:window-width="1440"
   inkscape:pageshadow="2"
   inkscape:pageopacity="0"
   guidetolerance="10"
   gridtolerance="10"
   objecttolerance="10"
   borderopacity="1"
   inkscape:document-rotation="0"
   bordercolor="#666666"
   pagecolor="#ffffff" />
<path
   style="fill:#ffffff"
   d="M 79 0.5 C 79 0.5 30.700391 0.3 18.400391 3.5 C 11.600391 5.3 5.1007812 10.8 3.3007812 17.5 C 0.00078125 29.7 0.30078125 55 0.30078125 55 C 0.30078125 55 0.00078125 80.3 3.3007812 92.5 C 5.1007812 99.2 11.700391 104.7 18.400391 106.5 C 30.700391 109.8 79 109.5 79 109.5 C 79 109.5 127.29961 109.7 139.59961 106.5 C 146.39961 104.7 152.7 99.2 154.5 92.5 C 157.8 80.4 157.80078 55 157.80078 55 C 157.80078 55 157.70039 29.7 154.40039 17.5 C 152.60039 10.8 147.3 5.4992188 140.5 3.6992188 C 128.2 0.49921875 79 0.5 79 0.5 z M 63.900391 30.800781 L 103.19922 55 L 63.900391 79.199219 L 63.900391 30.800781 z "
   id="XMLID_142_" />

</svg>
